{
  "accessors": [
    {
      "bufferView": 2,
      "componentType": 5126,
      "count": 42170,
      "max": [
        6.709313869476318,
        1.3781408071517944,
        4.284713268280029
      ],
      "min": [
        -6.422457695007324,
        -1.532450795173645,
        -10.40478801727295
      ],
      "type": "VEC3"
    },
    {
      "bufferView": 2,
      "byteOffset": 506040,
      "componentType": 5126,
      "count": 42170,
      "max": [
        1.0,
        1.0,
        1.0
      ],
      "min": [
        -1.0,
        -1.0,
        -1.0
      ],
      "type": "VEC3"
    },
    {
      "bufferView": 1,
      "componentType": 5126,
      "count": 42170,
      "max": [
        1.0000001192092896,
        1.0
      ],
      "min": [
        0.0,
        -2.384185791015625e-07
      ],
      "type": "VEC2"
    },
    {
      "bufferView": 0,
      "componentType": 5125,
      "count": 158220,
      "type": "SCALAR"
    }
  ],
  "asset": {
    "extras": {
      "author": "Ayan (https://sketchfab.com/ayanahmadbutt)",
      "license": "CC-BY-4.0 (http://creativecommons.org/licenses/by/4.0/)",
      "source": "https://sketchfab.com/3d-models/trident-672b12c70332413d83adb6073b05dac4",
      "title": "Trident"
    },
    "generator": "Sketchfab-12.66.0",
    "version": "2.0"
  },
  "bufferViews": [
    {
      "buffer": 0,
      "byteLength": 632880,
      "name": "floatBufferViews",
      "target": 34963
    },
    {
      "buffer": 0,
      "byteLength": 337360,
      "byteOffset": 632880,
      "byteStride": 8,
      "name": "floatBufferViews",
      "target": 34962
    },
    {
      "buffer": 0,
      "byteLength": 1012080,
      "byteOffset": 970240,
      "byteStride": 12,
      "name": "floatBufferViews",
      "target": 34962
    }
  ],
  "buffers": [
    {
      "byteLength": 1982320,
      "uri": "scene.bin"
    }
  ],
  "images": [
    {
      "uri": "textures/handle_baseColor.png"
    }
  ],
  "materials": [
    {
      "doubleSided": true,
      "name": "handle",
      "pbrMetallicRoughness": {
        "baseColorTexture": {
          "index": 0
        },
        "roughnessFactor": 0.0941724
      }
    }
  ],
  "meshes": [
    {
      "name": "Object_0",
      "primitives": [
        {
          "attributes": {
            "NORMAL": 1,
            "POSITION": 0,
            "TEXCOORD_0": 2
          },
          "indices": 3,
          "material": 0,
          "mode": 4
        }
      ]
    }
  ],
  "nodes": [
    {
      "children": [
        1
      ],
      "matrix": [
        1.0,
        0.0,
        0.0,
        0.0,
        0.0,
        2.220446049250313e-16,
        -1.0,
        0.0,
        0.0,
        1.0,
        2.220446049250313e-16,
        0.0,
        0.0,
        0.0,
        0.0,
        1.0
      ],
      "name": "Sketchfab_model"
    },
    {
      "children": [
        2
      ],
      "name": "root"
    },
    {
      "children": [
        3
      ],
      "matrix": [
        1.0,
        0.0,
        0.0,
        0.0,
        0.0,
        2.220446049250313e-16,
        1.0,
        0.0,
        0.0,
        -1.0,
        2.220446049250313e-16,
        0.0,
        0.0,
        0.0,
        0.0,
        1.0
      ],
      "name": "GLTF_SceneRootNode"
    },
    {
      "children": [
        4
      ],
      "matrix": [
        0.2704690098762512,
        0.0,
        -0.0,
        0.0,
        -0.0,
        -4.5597666325673437e-08,
        -0.2704690098762474,
        0.0,
        0.0,
        2.087406635284394,
        -3.5191045098011175e-07,
        0.0,
        -0.03051900863647461,
        6.4362335205078125,
        -0.00865645706653595,
        1.0
      ],
      "name": "handle_1"
    },
    {
      "children": [
        5
      ],
      "name": "handle_handle_0_0"
    },
    {
      "mesh": 0,
      "name": "Object_5"
    }
  ],
  "samplers": [
    {
      "magFilter": 9729,
      "minFilter": 9987,
      "wrapS": 10497,
      "wrapT": 10497
    }
  ],
  "scene": 0,
  "scenes": [
    {
      "name": "Sketchfab_Scene",
      "nodes": [
        0
      ]
    }
  ],
  "textures": [
    {
      "sampler": 0,
      "source": 0
    }
  ]
}
